<?xml version="1.0" encoding="UTF-8"?>
<svg id="_레이어_1" data-name="레이어 1" xmlns="http://www.w3.org/2000/svg" viewBox="0 0 841.89 595.28">
  <defs>
    <style>
      .cls-1, .cls-2 {
        fill: none;
        stroke: #fff;
        stroke-linecap: round;
        stroke-linejoin: round;
      }

      .cls-3 {
        fill: #fff;
      }

      .cls-2 {
        stroke-width: 10px;
      }
    </style>
  </defs>
  <g>
    <path class="cls-3" d="M234.95,422.4h-19.8v-15.61h56.45v15.61h-20.07v66.66h-16.58v-66.66Z"/>
    <path class="cls-3" d="M296.98,422.4h-19.8v-15.61h56.45v15.61h-20.07v66.66h-16.58v-66.66Z"/>
    <path class="cls-3" d="M406.38,447.1c0,26.99-14.53,43.3-35.97,43.3s-34.55-18.45-34.55-41.92,14.1-43.04,35.7-43.04,34.82,18.89,34.82,41.65Zm-52.99,1.03c0,16.12,6.77,27.48,17.84,27.48s17.62-11.88,17.62-27.88c0-14.83-6.25-27.49-17.66-27.49s-17.8,11.9-17.8,27.9Z"/>
    <path class="cls-3" d="M417.33,406.79h44.8v15.24h-28.22v18.86h26.39v15.09h-26.39v33.08h-16.58v-82.27Z"/>
    <path class="cls-3" d="M491.15,406.79v47.32c0,14.21,4.87,21.46,13.29,21.46s13.5-6.89,13.5-21.46v-47.32h16.58v46.17c0,25.38-11.44,37.44-30.64,37.44s-29.32-11.52-29.32-37.66v-45.95h16.58Z"/>
    <path class="cls-3" d="M548.89,489.06v-82.27h19.32l15.23,30.18c4.39,8.62,8.68,18.92,11.99,28.22l.28-.04c-1.02-10.88-1.34-21.94-1.34-34.37v-23.99h15.22v82.27h-17.37l-15.72-31.68c-4.37-8.88-9.19-19.42-12.74-29.07l-.36,.04c.51,10.9,.72,22.54,.72,35.98v24.73h-15.23Z"/>
    <path class="cls-3" d="M623.98,407.92c6.1-1.11,14.05-1.77,22.36-1.77,13.92,0,23.01,2.88,30.03,8.83,7.62,6.38,12.4,16.41,12.4,30.96,0,15.76-5.08,26.67-12.13,33.33-7.71,7.21-19.53,10.65-33.83,10.65-8.62,0-14.76-.58-18.84-1.22v-80.78Zm16.56,67.14c1.45,.3,3.76,.32,5.79,.32,15.02,.14,24.9-9.16,24.9-28.83,.03-17.09-8.89-26.08-23.15-26.08-3.63,0-6.07,.35-7.53,.71v53.88Z"/>
    <polygon class="cls-3" points="202.17 489.06 220.04 489.06 197.2 406.79 175.5 406.79 153.11 489.06 170.26 489.06 170.69 487.3 170.26 487.3 185.59 418.99 202.17 487.3 201.7 487.3 202.17 489.06"/>
    <polygon class="cls-3" points="194.44 489.06 186.57 454.08 178.71 489.06 194.44 489.06"/>
  </g>
  <path class="cls-3" d="M442.77,187.24c4.26,6.06,0,19.65,0,19.65,0,0-1.8,3.42,4.87,11.54,0,0,1.68,1.63-2.21,3.12s-2.96,2.5-2.88,2.85,1.59,2.26-2,2.93c0,0,3.07,3.49-1.69,3.56,0,0,1.37,8.06-3.9,8.2-5.27,.15-6.51-1.99-9.59-2.12,0,0-2.05-.6-4.65,4.08-2.61,4.68-1.77,4.64-1.77,4.64,0,0,12.21,.77,16.02,6.66,3.8,5.89,3.6,7.19,5.14,10.57,0,0,3.66,8.53,4.48,14.75l-.04,.49c8.88,9.59,9.32,17.73,9.32,17.73-.15,4.74-5.46,10.71-5.6,10.88,2.29,.61,4.7,1.13,4.7,1.13,2.48,.67,6.23,3.13,8.04,4.39,45.75-9.86,80.05-50.54,80.05-99.24,0-56.08-45.46-101.55-101.55-101.55s-101.55,45.46-101.55,101.55c0,7.59,.86,14.97,2.44,22.08,1.82-5.15,9.87-7.12,14.31-10.36,6.3-4.6-3.28-9.06,4.33-14.05,7.62-4.99,17.6,.26,12.87-12.08-4.73-12.34,11.29-15.5,11.29-15.5-1.84-3.28,3.02-7.35,3.02-7.35,3.55-8.67,16.68-4.86,16.68-4.86,9.59-7.22,13.92-2.76,28.89-2.36,14.97,.39,11.42,12.88,11.42,12.88,0,0,7.78-2.2,10.59,5.7,2.81,7.89-2.78,9.81-3.78,10.38,0,0-1.53,.47-.83,2.17,.64,1.56-1.07,3.39-1.07,3.39,.29-2.04-.8-2.28-1.54-3.55-.69-1.18-.48-2.99,.76-3.89,1.93-1.41,2.11-2.66,2.11-2.66,2.21-7.51-6.69-5.73-6.69-5.73Z"/>
  <path class="cls-1" d="M444.79,278.34c-.81-6.22-4.35-15.14-4.35-15.14-1.54-3.38-1.34-4.68-5.14-10.57-3.8-5.89-16.02-6.66-16.02-6.66,0,0-.84,.04,1.77-4.64s4.65-4.08,4.65-4.08c3.09,.12,4.33,2.26,9.59,2.12,5.27-.15,3.9-8.2,3.9-8.2,4.76-.07,1.69-3.56,1.69-3.56,3.6-.67,2.08-2.57,2-2.93s-1.01-1.36,2.88-2.85c3.89-1.49,2.21-3.12,2.21-3.12-6.67-8.11-4.87-11.54-4.87-11.54,0,0,4.26-13.59,0-19.65"/>
  <path class="cls-1" d="M433.24,206.38s6.02,.11,7.84-.45"/>
  <path class="cls-1" d="M434.2,206.39s2.46,2.42,5.17,4.21v-.19c.28-1.65,0-4.21,0-4.21"/>
  <path class="cls-1" d="M442.11,203.11s-1.31-.23-3.23-1.45-5.34-.84-5.34-.84"/>
  <path class="cls-1" d="M448.57,307.06s5.47-6.08,5.62-10.89c0,0-.62-11.9-16.07-23.88-15.45-11.99-23.83-20.65-24.55-21.37,0,0-8-6.61-12.45-9.32"/>
  <path class="cls-1" d="M344.63,262.34s-10.27,16.48-9.9,26.14c0,0-2.02,6.62,4.06,10.91,0,0-2.17,12.98-1.85,15.8,0,0,.59,3.93,10.67,1.53"/>
  <path class="cls-1" d="M376.55,237.14s3.89-2.44,7.92-.09c0,0,4.04-3.75,6.75-.15l.35,.15c4.9,4.62,11.15,4.71,11.15,4.71,0,0,6.24,.68,6.92-3.46,.68-4.14,3.46-6.54,3.46-6.54-1.13,6.09,3.76,5.57,3.76,5.57-.75-.38-4.44-3.61,0-8.5,4.44-4.89,1.65-10.76,1.65-10.76,3.76,4.66,2.71,7,1.4,9.55s.56,4.51,.56,4.51c-1.2-1.88-.08-3.01-.08-3.01,5.57-6.17,1.88-9.25,1.88-9.25-5.57-5.04,.83-9.42,.83-9.42,1.34,.73,4.86,3.95,2.85,8.26-2,4.31-.26,5.35-.26,5.35-1.26-2.77,1.9-2.13,2.75-7.76,.85-5.64-7.44-7.87,1.28-13.29,8.72-5.42,5.21-4.36,5.57-12.44s7.82-3.02,7.82-3.02c0,0,8.9-1.78,6.69,5.73,0,0-.18,1.25-2.11,2.66-1.23,.9-1.45,2.71-.76,3.89,.74,1.26,1.83,1.51,1.54,3.55,0,0,1.71-1.83,1.07-3.39-.7-1.7,.83-2.17,.83-2.17,.99-.58,6.59-2.49,3.78-10.38-2.81-7.89-10.59-5.69-10.59-5.69,0,0,3.55-12.48-11.42-12.88s-19.31-4.86-28.89,2.36c0,0-13.13-3.81-16.68,4.86,0,0-4.86,4.07-3.02,7.35,0,0-16.02,3.15-11.29,15.5,4.73,12.34-5.25,7.09-12.87,12.08-7.62,4.99,1.97,9.46-4.33,14.05-6.3,4.6-19.92,6.65-12.57,18.86,0,0,3.53,7.69-4.93,1.85,0,0,1.48,4.93,6.06,4.43,0,0,.98,4.59-6.9,10.99,0,0-5.12,4.03-3.54,9.5,0,0,2.45-6.6,8.96-8.61,0,0,1.57-.41,2.51,.29,0,0,3.13-4.8,13.21-8.92,10.08-4.12,6.23-7.74,11.29-11.79"/>
  <path class="cls-1" d="M375.33,287.02c-.63,2.46-3.35,9.15-3.35,9.15,3.74-.77,10.57,2.19,10.57,2.19,9.02,4.64,18.62,5.16,20.49,5.35s14.05,.32,20.04,.97c5.99,.64,12.39,.94,12.39,.94,0,0,8.51,.05,11.1,.85,2.59,.8,6.72,1.7,6.72,1.7,3.37,.91,9.1,5.14,9.1,5.14,3.91,2.41,6.18,7.06,6.18,7.06-3.58,1.07-9.58-1.32-9.58-1.32l.95,1.17c-2.56,.77-8.58-1.6-8.58-1.6-10.46-3.33-9.67-.52-18.04,.39-8.37,.92-7.99-.54-16.34-2.05-8.35-1.51-41.83,.57-50.79,.99s-22.28-.75-22.81-3.36,0-7.54,0-7.54c-.12-11.95,9.58-27.37,14.07-37.46,4.48-10.09,5.34-13.98,7.91-21.76,2.57-7.78,9.5-10.09,10.02-10.29,0,0,2.53-2.08,10.36,2.2,7.83,4.28,8.22,15.85,7.99,21.56-.23,5.71-1.96,26.58-18.41,25.7,0,0,5.83-24.55,11.7-18.64"/>
  <path class="cls-1" d="M371.97,296.17s-7.6,1.68-13.7,6.46"/>
  <path class="cls-1" d="M416.24,312.96s4.19,3.96,6.5,5.31"/>
  <path class="cls-1" d="M445.07,312.51s3.22,2.2,8.57,3.69c0,0,3.49,1.06,5.35,2.85"/>
  <path class="cls-1" d="M445.72,309.09s1.69,2.54,10.4,5.01c0,0,7.12,3.09,8.79,6.46"/>
  <path class="cls-1" d="M449.24,307.84s11.99,5.28,13.96,7.28c1.96,2,3.49,2.71,4.54,5.44"/>
  <path class="cls-1" d="M403.89,260.58c-.27-2.44-4.46-9.2-10.2-15.96-5.73-6.76-9.22-7.57-9.22-7.57,0,0,2.91-2.58,15.36,10.54,12.45,13.12,13.94,15.83,13.94,15.83"/>
  <path class="cls-1" d="M393.69,238.73s12.33,8.11,23.53,18.87c11.2,10.76,12.28,12.39,12.28,12.39"/>
  <path class="cls-1" d="M431.54,299.4s-4.59,3.97-10.7,5.08"/>
  <path class="cls-1" d="M413.76,301.13s-3.78,1.87-7.9,2.72"/>
  <path class="cls-1" d="M387.94,287.51s-6.09,6.39-12.86,8.66"/>
  <path class="cls-1" d="M386.84,291.84s-4.45,3.32-8.79,4.96"/>
  <path class="cls-1" d="M338.79,299.4s1.8,1.48,4.37,1.99c0,0-7.51,10.02-6.22,13.82"/>
  <path class="cls-1" d="M344.95,297.47s-3.57-22.88,1.97-37.58"/>
  <path class="cls-1" d="M346.37,293.24s-.25-16.05,2.79-27.18"/>
  <path class="cls-1" d="M348.76,287.51s.95-16.23,5.01-25.16"/>
  <path class="cls-1" d="M430.98,302.63s-3.72,2.46-5.34,2.3"/>
  <circle class="cls-2" cx="420.94" cy="233.36" r="128.48"/>
</svg>